<svg xmlns="http://www.w3.org/2000/svg" version="1.1" xmlns:xlink="http://www.w3.org/1999/xlink" xmlns:svgjs="http://svgjs.dev/svgjs" width="1000" height="293" viewBox="0 0 1000 293"><g transform="matrix(1,0,0,1,0.6149650114552969,-0.010990794891341693)"><svg viewBox="0 0 399 117" data-background-color="#000000" preserveAspectRatio="xMidYMid meet" height="293" width="1000" xmlns="http://www.w3.org/2000/svg" xmlns:xlink="http://www.w3.org/1999/xlink"><g id="tight-bounds" transform="matrix(1,0,0,1,3.725359650378664,1.324461511610906)"><svg viewBox="0 0 395.52 79.31010856562712" height="79.31010856562712" width="395.52"><g><svg viewBox="0 0 465.77393296914784 93.39750503343002" height="79.31010856562712" width="395.52"><g transform="matrix(1,0,0,1,70.25393296914788,28.861184710483148)"><svg viewBox="0 0 395.52 35.67513561246373" height="35.67513561246373" width="395.52"><g><svg viewBox="0 0 395.52 35.67513561246373" height="35.67513561246373" width="395.52"><g><svg viewBox="0 0 395.52 35.67513561246373" height="35.67513561246373" width="395.52"><g transform="matrix(1,0,0,1,0,0)"><svg width="395.52" viewBox="-0.550000011920929 -35.75 396.3299865722656 35.75" height="35.67513561246373" data-palette-color="#c6b2b2"><path d="M27.3-2.15L39.1-2.15 39.1 0-0.55 0-0.55-2.15 4.3-2.15 4.3-34.95 16.65-34.95Q26-34.95 31-30.38 36-25.8 36-17.5L36-17.5Q36-6.3 27.3-2.15L27.3-2.15ZM17.05-6.9Q22.4-6.9 25.28-9.6 28.15-12.3 28.15-17.45 28.15-22.6 25.28-25.38 22.4-28.15 16.45-28.15L16.45-28.15 12.1-28.15 12.1-6.9 17.05-6.9ZM38.55-2.15L43.4-2.15 43.4-34.95 68.6-34.95 68.6-28 51.2-28 51.2-20.8 66.85-20.8 66.85-14.15 51.2-14.15 51.2-6.9 69.15-6.9 69.15-2.15 74-2.15 74 0 38.55 0 38.55-2.15ZM71.25-2.15L76.1-2.15 76.1-34.95 101.3-34.95 101.3-28 83.9-28 83.9-20.8 99.55-20.8 99.55-14.15 83.9-14.15 83.9-6.9 101.85-6.9 101.85-2.15 106.7-2.15 106.7 0 71.25 0 71.25-2.15ZM116.59-2.15L138.34-2.15 138.34 0 103.94 0 103.94-2.15 108.79-2.15 108.79-34.95 121.14-34.95Q129.19-34.95 132.87-31.83 136.54-28.7 136.54-22.23 136.54-15.75 132.77-12.75 128.99-9.75 121.24-9.75L121.24-9.75 116.59-9.75 116.59-2.15ZM121.84-16.5Q125.74-16.5 127.14-18.07 128.54-19.65 128.54-22.68 128.54-25.7 126.72-26.98 124.89-28.25 121.04-28.25L121.04-28.25 116.59-28.25 116.59-16.5 121.84-16.5ZM172.84-2.15L178.64-2.15 178.64 0 165.49 0 162.24-7.55 147.59-7.55 144.34 0 131.19 0 131.19-2.15 136.94-2.15 151.14-34.95 158.69-34.95 172.84-2.15ZM159.29-14.4L154.94-24.55 150.54-14.4 159.29-14.4ZM210.09-2.15L215.89-2.15 215.89 0 202.74 0 199.49-7.55 184.84-7.55 181.59 0 168.44 0 168.44-2.15 174.19-2.15 188.39-34.95 195.94-34.95 210.09-2.15ZM196.54-14.4L192.19-24.55 187.79-14.4 196.54-14.4ZM210.24-2.15L215.09-2.15 215.09-34.95 228.34-34.95Q236.49-34.95 239.96-32.2 243.44-29.45 243.44-23.35L243.44-23.35Q243.44-14.95 236.79-12.5L236.79-12.5 244.09-2.15 248.79-2.15 248.79 0 236.04 0 228.29-11.15 222.89-11.15 222.89 0 210.24 0 210.24-2.15ZM228.59-17.9Q232.59-17.9 234.04-19.2 235.49-20.5 235.49-23.33 235.49-26.15 233.99-27.2 232.49-28.25 228.74-28.25L228.74-28.25 222.89-28.25 222.89-17.9 228.59-17.9ZM276.93-2.15L288.08-2.15 288.08 0 246.78 0 246.78-2.15 257.93-2.15Q253.83-4.5 251.46-8.6 249.08-12.7 249.08-17.7L249.08-17.7Q249.08-25.4 254.38-30.58 259.68-35.75 267.43-35.75 275.18-35.75 280.48-30.58 285.78-25.4 285.78-17.7L285.78-17.7Q285.78-12.7 283.38-8.6 280.98-4.5 276.93-2.15L276.93-2.15ZM277.83-17.68Q277.83-22.35 274.83-25.65 271.83-28.95 267.46-28.95 263.08-28.95 260.08-25.65 257.08-22.35 257.08-17.68 257.08-13 260.08-9.73 263.08-6.45 267.46-6.45 271.83-6.45 274.83-9.73 277.83-13 277.83-17.68ZM318.88-2.15L325.58-2.15 325.58 0 288.08 0 288.08-2.15 298.93-2.15Q294.93-4.5 292.66-8.53 290.38-12.55 290.38-17.65L290.38-17.65Q290.38-25.35 295.71-30.55 301.03-35.75 308.56-35.75 316.08-35.75 321.63-30.8L321.63-30.8 317.58-24.95Q315.23-27 313.26-27.78 311.28-28.55 308.98-28.55L308.98-28.55Q304.53-28.55 301.48-25.53 298.43-22.5 298.43-17.55 298.43-12.6 301.36-9.63 304.28-6.65 308.33-6.65 312.38-6.65 315.08-8.2L315.08-8.2 315.08-17.8 322.93-17.8 322.93-5.4Q321.23-3.5 318.88-2.15L318.88-2.15ZM344.33-2.15L355.88-2.15 355.88 0 324.98 0 324.98-2.15 336.53-2.15 336.53-13.8 324.43-34.95 332.88-34.95 340.43-21.95 347.98-34.95 356.43-34.95 344.33-13.8 344.33-2.15ZM389.98-2.15L395.78-2.15 395.78 0 382.63 0 379.38-7.55 364.73-7.55 361.48 0 348.32 0 348.32-2.15 354.07-2.15 368.28-34.95 375.82-34.95 389.98-2.15ZM376.43-14.4L372.07-24.55 367.68-14.4 376.43-14.4Z" opacity="1" transform="matrix(1,0,0,1,0,0)" fill="#c6b2b2" class="undefined-text-0" data-fill-palette-color="primary" id="text-0"></path></svg></g></svg></g></svg></g></svg></g><g><svg viewBox="0 0 61.8318896542999 93.39750503343002" height="93.39750503343002" width="61.8318896542999"><g><svg xmlns="http://www.w3.org/2000/svg" xmlns:xlink="http://www.w3.org/1999/xlink" version="1.1" x="0" y="0" viewBox="24.761856079101562 5 59.5826416015625 90" enable-background="new 0 0 100 100" xml:space="preserve" height="93.39750503343002" width="61.8318896542999" class="icon-icon-0" data-fill-palette-color="accent" id="icon-0"><g fill="#7d89e0" data-fill-palette-color="accent"><path d="M73.76 35.603C86.875 48 91.5 66.25 65.633 82.379c3.64-4.928 5.654-9.794 6.096-14.669 0.951-10.516-5.606-19.072-12.835-26.752C48.298 29.7 47.51 18.84 56.413 6.782 54.578 22.641 64.6 26.944 73.76 35.603zM45.288 93.716c6.184-13.053 7.276-20.302-8.197-34.939-4.204-3.977-7.451-8.029-9.71-12.086-2.881 6.435-5.164 20.081 3.244 27.935C36.312 79.938 44.125 83.125 45.288 93.716zM56.709 43.014C48.183 33.954 41.999 21.253 54 5 21.497 17.692 19.625 38.125 39.151 56.597 55.603 72.158 54.75 80.75 48 95 79.875 71.5 68.709 55.764 56.709 43.014z" fill="#7d89e0" data-fill-palette-color="accent"></path></g><g display="none" fill="#7d89e0" data-fill-palette-color="accent"><path display="inline" d="M54 5C16.75 17.5 14.875 56.5 26.75 70.762c10.558 12.68 15.407 7.949 19.675 20.824" fill="#7d89e0" data-fill-palette-color="accent"></path><line display="inline" x1="56.988" y1="5.261" x2="45.528" y2="136.262" fill="#7d89e0" data-fill-palette-color="accent"></line><line display="inline" x1="54.131" y1="3.502" x2="42.67" y2="134.502" fill="#7d89e0" data-fill-palette-color="accent"></line><path display="inline" d="M42.875 76" fill="#7d89e0" data-fill-palette-color="accent"></path></g></svg></g></svg></g></svg></g><defs></defs></svg><rect width="395.52" height="79.31010856562712" fill="none" stroke="none" visibility="hidden"></rect></g></svg></g></svg>