<svg xmlns="http://www.w3.org/2000/svg" version="1.1" xmlns:xlink="http://www.w3.org/1999/xlink" xmlns:svgjs="http://svgjs.dev/svgjs" width="1000" height="1000" viewBox="0 0 1000 1000"><rect width="1000" height="1000" fill="#ffffff"></rect><g transform="matrix(0.7,0,0,0.7,149.57575789836432,457.8390778935112)"><svg viewBox="0 0 396 48" data-background-color="#000000" preserveAspectRatio="xMidYMid meet" height="121" width="1000" xmlns="http://www.w3.org/2000/svg" xmlns:xlink="http://www.w3.org/1999/xlink"><g id="tight-bounds" transform="matrix(1,0,0,1,0.23999981749676635,-0.10715158073838893)"><svg viewBox="0 0 395.52 48.214303161476785" height="48.214303161476785" width="395.52"><g><svg viewBox="0 0 459.3276958279424 55.992528259281485" height="48.214303161476785" width="395.52"><g><rect width="4.648544173925474" height="55.992528259281485" x="46.99018784792935" y="0" fill="#000000" opacity="1" stroke-width="0" stroke="transparent" fill-opacity="1" class="rect-o-0" data-fill-palette-color="primary" rx="1%" id="o-0" data-palette-color="#89939e"></rect></g><g transform="matrix(1,0,0,1,63.80769582794245,0.13928489616736428)"><svg viewBox="0 0 395.52 55.71395846694676" height="55.71395846694676" width="395.52"><g><svg viewBox="0 0 395.52 55.71395846694676" height="55.71395846694676" width="395.52"><g><svg viewBox="0 0 395.52 55.71395846694676" height="55.71395846694676" width="395.52"><g transform="matrix(1,0,0,1,0,0)"><svg width="395.52" viewBox="1.0699996948242188 -36.12999725341797 284.75 37.11000061035156" height="55.71395846694676" data-palette-color="#89939e"><svg></svg><g class="undefined-text-0" data-fill-palette-color="primary" id="text-0"><path xmlns="http://www.w3.org/2000/svg" d="M28.91-19.38v0c0 2.273-0.293 4.327-0.88 6.16-0.587 1.833-1.407 3.46-2.46 4.88-1.047 1.427-2.293 2.653-3.74 3.68-1.453 1.02-3.04 1.86-4.76 2.52-1.727 0.66-3.563 1.15-5.51 1.47-1.947 0.313-3.943 0.47-5.99 0.47v0c-0.767 0-1.517-0.02-2.25-0.06-0.733-0.04-1.483-0.1-2.25-0.18v0l0.69-32.76c1.787-0.573 3.63-0.977 5.53-1.21 1.893-0.24 3.777-0.36 5.65-0.36v0c2.327 0 4.467 0.35 6.42 1.05 1.953 0.7 3.637 1.71 5.05 3.03 1.42 1.32 2.523 2.933 3.31 4.84 0.793 1.9 1.19 4.057 1.19 6.47zM18.9-17.48v-0.34c0.013-0.88-0.08-1.727-0.28-2.54-0.207-0.813-0.543-1.533-1.01-2.16-0.46-0.627-1.05-1.133-1.77-1.52-0.713-0.38-1.567-0.587-2.56-0.62v0l-0.98 15.14c0.98-0.147 1.87-0.47 2.67-0.97 0.793-0.493 1.48-1.103 2.06-1.83 0.58-0.72 1.027-1.523 1.34-2.41 0.32-0.887 0.497-1.803 0.53-2.75zM30.98-35.21h22.51c-0.1 1.533-0.19 3.05-0.27 4.55-0.08 1.493-0.183 3.007-0.31 4.54v0l-10.36 0.53-0.24 3.08h7.27l-0.53 7.57-7.33 0.24-0.24 3.57h6.05 4.3c-0.1 1.787-0.2 3.563-0.3 5.33-0.107 1.767-0.2 3.537-0.28 5.31v0l-21.05 0.49zM54.93-35.21h22.51c-0.1 1.533-0.19 3.05-0.27 4.55-0.08 1.493-0.183 3.007-0.31 4.54v0l-10.36 0.53-0.24 3.08h7.28l-0.54 7.57-7.33 0.24-0.24 3.57h6.05 4.3c-0.1 1.787-0.2 3.563-0.3 5.33-0.107 1.767-0.2 3.537-0.28 5.31v0l-21.05 0.49zM106.71-23.49v0c0 1.58-0.233 2.98-0.7 4.2-0.473 1.22-1.123 2.287-1.95 3.2-0.82 0.913-1.783 1.687-2.89 2.32-1.107 0.633-2.29 1.15-3.55 1.55-1.26 0.4-2.567 0.693-3.92 0.88-1.353 0.187-2.68 0.287-3.98 0.3v0 11.38h-11.38c0-3.727 0.01-7.437 0.03-11.13 0.013-3.693 0.037-7.42 0.07-11.18v0c0.033-1.987 0.043-3.973 0.03-5.96-0.02-1.987 0.02-3.99 0.12-6.01v0c2.08-0.613 4.163-1.077 6.25-1.39 2.08-0.307 4.227-0.46 6.44-0.46v0c1.253 0 2.507 0.1 3.76 0.3 1.253 0.207 2.457 0.53 3.61 0.97 1.147 0.44 2.21 0.99 3.19 1.65 0.987 0.66 1.837 1.443 2.55 2.35 0.72 0.913 1.287 1.953 1.7 3.12 0.413 1.16 0.62 2.463 0.62 3.91zM95.87-22.66v0c0-1.053-0.32-1.877-0.96-2.47-0.64-0.6-1.473-0.9-2.5-0.9v0c-0.347 0-0.7 0.03-1.06 0.09-0.367 0.06-0.713 0.13-1.04 0.21v0l-0.3 7.13c0.233 0.033 0.453 0.05 0.66 0.05 0.213 0 0.433 0 0.66 0v0c0.587 0 1.153-0.1 1.7-0.3 0.547-0.193 1.03-0.473 1.45-0.84 0.427-0.367 0.767-0.797 1.02-1.29 0.247-0.5 0.37-1.06 0.37-1.68zM126.73-34.96l9.52 32.86-12.1 1.56-1.47-5.51h-5.57l-1.22 5.51-12.45-1.22 9.72-32.52zM118.14-13.53h3.66l-1.85-8.49zM165.38-23.54v0c0 1.273-0.11 2.427-0.33 3.46-0.22 1.033-0.567 1.98-1.04 2.84-0.467 0.867-1.077 1.667-1.83 2.4-0.747 0.727-1.65 1.427-2.71 2.1v0l5.81 10.35-10.98 2.15-3.76-10.4-3.03 0.09-0.44 10.16h-10.5c0.08-3.713 0.157-7.407 0.23-11.08 0.073-3.68 0.16-7.377 0.26-11.09v0c0.033-1.873 0.067-3.73 0.1-5.57 0.033-1.833 0.097-3.687 0.19-5.56v0c1.14-0.427 2.263-0.777 3.37-1.05 1.107-0.28 2.22-0.497 3.34-0.65 1.113-0.153 2.243-0.26 3.39-0.32 1.147-0.053 2.323-0.08 3.53-0.08v0c1.853 0 3.647 0.257 5.38 0.77 1.733 0.513 3.267 1.283 4.6 2.31 1.333 1.02 2.403 2.297 3.21 3.83 0.807 1.527 1.21 3.307 1.21 5.34zM154.44-22.75v0c0-0.687-0.093-1.313-0.28-1.88-0.187-0.573-0.463-1.067-0.83-1.48-0.367-0.413-0.82-0.74-1.36-0.98-0.547-0.233-1.187-0.35-1.92-0.35v0c-0.327 0-0.643 0.02-0.95 0.06-0.313 0.04-0.617 0.1-0.91 0.18v0l-0.39 9.08h0.59c0.7 0 1.41-0.087 2.13-0.26 0.727-0.18 1.38-0.457 1.96-0.83 0.573-0.38 1.043-0.86 1.41-1.44 0.367-0.587 0.55-1.287 0.55-2.1zM196.92-17.24v0c0 1.487-0.17 2.917-0.51 4.29-0.34 1.373-0.833 2.663-1.48 3.87-0.64 1.2-1.42 2.303-2.34 3.31-0.92 1-1.953 1.857-3.1 2.57-1.147 0.72-2.397 1.277-3.75 1.67-1.347 0.4-2.777 0.6-4.29 0.6v0c-1.467 0-2.863-0.187-4.19-0.56-1.327-0.373-2.567-0.897-3.72-1.57-1.16-0.68-2.207-1.497-3.14-2.45-0.94-0.947-1.737-2.003-2.39-3.17-0.66-1.16-1.173-2.41-1.54-3.75-0.367-1.333-0.55-2.723-0.55-4.17v0c0-1.42 0.17-2.807 0.51-4.16 0.34-1.36 0.833-2.643 1.48-3.85 0.64-1.207 1.417-2.313 2.33-3.32 0.913-1.007 1.933-1.877 3.06-2.61 1.133-0.733 2.36-1.303 3.68-1.71 1.32-0.407 2.71-0.61 4.17-0.61v0c2.36 0 4.513 0.367 6.46 1.1 1.947 0.733 3.607 1.777 4.98 3.13 1.373 1.36 2.44 3.007 3.2 4.94 0.753 1.927 1.13 4.077 1.13 6.45zM186.08-16.6v0c0-0.7-0.1-1.38-0.3-2.04-0.207-0.66-0.503-1.247-0.89-1.76-0.393-0.513-0.877-0.927-1.45-1.24-0.58-0.32-1.243-0.48-1.99-0.48v0c-0.767 0-1.453 0.14-2.06 0.42-0.6 0.273-1.117 0.65-1.55 1.13-0.427 0.48-0.753 1.043-0.98 1.69-0.233 0.64-0.35 1.317-0.35 2.03v0c0 0.687 0.1 1.373 0.3 2.06 0.193 0.68 0.487 1.297 0.88 1.85 0.387 0.553 0.87 1 1.45 1.34 0.573 0.347 1.243 0.52 2.01 0.52v0c0.767 0 1.457-0.153 2.07-0.46 0.607-0.3 1.123-0.707 1.55-1.22 0.42-0.513 0.743-1.103 0.97-1.77 0.227-0.667 0.34-1.357 0.34-2.07zM227.81-21.39l0.29 16.41c-0.767 0.96-1.71 1.797-2.83 2.51-1.127 0.72-2.33 1.317-3.61 1.79-1.287 0.467-2.607 0.82-3.96 1.06-1.353 0.233-2.64 0.35-3.86 0.35v0c-2.36 0-4.533-0.423-6.52-1.27-1.98-0.847-3.69-2.013-5.13-3.5-1.447-1.487-2.577-3.24-3.39-5.26-0.813-2.02-1.22-4.193-1.22-6.52v0c0-1.773 0.203-3.51 0.61-5.21 0.407-1.7 0.99-3.303 1.75-4.81 0.753-1.507 1.677-2.89 2.77-4.15 1.093-1.26 2.33-2.347 3.71-3.26 1.387-0.913 2.9-1.623 4.54-2.13 1.647-0.5 3.407-0.75 5.28-0.75v0c0.7 0 1.447 0.027 2.24 0.08 0.8 0.06 1.593 0.16 2.38 0.3 0.793 0.133 1.563 0.323 2.31 0.57 0.747 0.247 1.43 0.547 2.05 0.9v0l-0.68 9.33c-0.913-0.34-1.853-0.573-2.82-0.7-0.973-0.12-1.923-0.18-2.85-0.18v0c-1.3 0-2.517 0.2-3.65 0.6-1.127 0.4-2.11 0.973-2.95 1.72-0.84 0.747-1.503 1.657-1.99 2.73-0.487 1.073-0.73 2.287-0.73 3.64v0c0 0.847 0.113 1.663 0.34 2.45 0.227 0.793 0.573 1.493 1.04 2.1 0.46 0.613 1.037 1.107 1.73 1.48 0.693 0.373 1.493 0.56 2.4 0.56v0c0.62 0 1.26-0.08 1.92-0.24 0.66-0.167 1.227-0.443 1.7-0.83v0l0.09-1.91-5.85-0.09 0.29-7.33c2.427-0.08 4.85-0.147 7.27-0.2 2.427-0.06 4.87-0.14 7.33-0.24zM247.85-33.89l11.72 0.83-13.43 18.75-0.63 15.29h-11.57l0.29-15.19-6.98-18.11 12.45-1.57 1.95 10.55zM276.29-34.96l9.53 32.86-12.11 1.56-1.47-5.51h-5.57l-1.22 5.51-12.45-1.22 9.72-32.52zM267.7-13.53h3.66l-1.85-8.49z" fill="#000000" fill-rule="nonzero" stroke="none" stroke-width="1" stroke-linecap="butt" stroke-linejoin="miter" stroke-miterlimit="10" stroke-dasharray="" stroke-dashoffset="0" font-family="none" font-weight="none" font-size="none" text-anchor="none" style="mix-blend-mode: normal" data-fill-palette-color="primary" opacity="1"></path></g></svg></g></svg></g></svg></g></svg></g><g transform="matrix(1,0,0,1,0,0.13928489616736783)"><svg viewBox="0 0 34.821224041841724 55.71395846694675" height="55.71395846694675" width="34.821224041841724"><g><svg xmlns="http://www.w3.org/2000/svg" xmlns:xlink="http://www.w3.org/1999/xlink" version="1.1" x="0" y="0" viewBox="11 2 30 48" enable-background="new 0 0 52 52" xml:space="preserve" height="55.71395846694675" width="34.821224041841724" class="icon-icon-0" data-fill-palette-color="accent" id="icon-0"><g fill="#dedede" data-fill-palette-color="accent"><path fill="#000000" d="M38 2H14c-1.654 0-3 1.346-3 3v32c0 1.654 1.346 3 3 3h7.896C22.251 40.183 22.62 40.34 23 40.475V47c0 1.654 1.346 3 3 3s3-1.346 3-3v-6.525C29.38 40.34 29.749 40.183 30.104 40H38c1.654 0 3-1.346 3-3V5C41 3.346 39.654 2 38 2zM26 39c-3.86 0-7-3.141-7-7s3.14-7 7-7 7 3.141 7 7S29.86 39 26 39zM27 41v6c0 0.552-0.449 1-1 1s-1-0.448-1-1v-6H27zM39 37c0 0.552-0.449 1-1 1h-5.311C34.121 36.406 35 34.306 35 32c0-4.963-4.038-9-9-9s-9 4.037-9 9c0 2.306 0.879 4.406 2.311 6H14c-0.551 0-1-0.448-1-1V5c0-0.552 0.449-1 1-1h24c0.551 0 1 0.448 1 1V37z" data-fill-palette-color="accent"></path><path fill="#000000" d="M21 32h2c0-1.654 1.346-3 3-3v-2C23.243 27 21 29.243 21 32z" data-fill-palette-color="accent"></path><path fill="#000000" d="M36 8H16c-0.552 0-1 0.447-1 1s0.448 1 1 1h20c0.552 0 1-0.447 1-1S36.552 8 36 8z" data-fill-palette-color="accent"></path><path fill="#000000" d="M32 15c0.552 0 1-0.447 1-1s-0.448-1-1-1H20c-0.552 0-1 0.447-1 1s0.448 1 1 1H32z" data-fill-palette-color="accent"></path><path fill="#000000" d="M36 18H16c-0.552 0-1 0.447-1 1s0.448 1 1 1h20c0.552 0 1-0.447 1-1S36.552 18 36 18z" data-fill-palette-color="accent"></path></g></svg></g></svg></g></svg></g><defs></defs></svg><rect width="395.52" height="48.214303161476785" fill="none" stroke="none" visibility="hidden"></rect></g></svg></g></svg>